<?xml version="1.0" encoding="utf-8"?>
<!-- Generator: Adobe Illustrator 24.3.0, SVG Export Plug-In . SVG Version: 6.00 Build 0)  -->
<svg version="1.1" id="Layer_1" xmlns="http://www.w3.org/2000/svg" xmlns:xlink="http://www.w3.org/1999/xlink" x="0px" y="0px"
	 viewBox="0 0 48 48" style="enable-background:new 0 0 48 48;" xml:space="preserve">
<path d="M6,48c-1,0-1.8-0.4-2.5-1.1c-0.7-0.7-1.1-1.6-1.1-2.5V7.2c0-1,0.4-1.8,1.1-2.5C4.2,4,5,3.6,6,3.6h3.8c0.1,0,0.1,0,0.1-0.1
	V0.3C9.9,0.1,10,0,10.2,0h3.3c0.2,0,0.3,0.1,0.3,0.3v3.2c0,0.1,0,0.1,0.1,0.1h20.2c0.1,0,0.1,0,0.1-0.1V0.3c0-0.2,0.1-0.3,0.3-0.3
	h3.3c0.2,0,0.3,0.1,0.3,0.3v3.2c0,0.1,0,0.1,0.1,0.1H42c1,0,1.8,0.4,2.5,1.1c0.7,0.7,1.1,1.6,1.1,2.5v37.2c0,1-0.4,1.8-1.1,2.5
	C43.8,47.6,43,48,42,48H6z M6.1,44.4h35.8c0.1,0,0.1,0,0.1-0.1V18.7c0-0.1,0-0.1-0.1-0.1H6.1c-0.1,0-0.1,0-0.1,0.1v25.6
	C6,44.4,6,44.4,6.1,44.4z M6.1,15h35.8c0.1,0,0.1,0,0.1-0.1V7.3c0-0.1,0-0.1-0.1-0.1H6.1C6,7.2,6,7.2,6,7.3v7.6C6,15,6,15,6.1,15z
	 M6,15V7.2V15z M24,28.8c-0.7,0-1.2-0.2-1.7-0.7c-0.5-0.5-0.7-1-0.7-1.7s0.2-1.2,0.7-1.7c0.5-0.5,1-0.7,1.7-0.7s1.2,0.2,1.7,0.7
	c0.5,0.5,0.7,1,0.7,1.7s-0.2,1.2-0.7,1.7C25.2,28.6,24.7,28.8,24,28.8z M14.4,28.8c-0.7,0-1.2-0.2-1.7-0.7c-0.5-0.5-0.7-1-0.7-1.7
	s0.2-1.2,0.7-1.7s1-0.7,1.7-0.7c0.7,0,1.2,0.2,1.7,0.7c0.5,0.5,0.7,1,0.7,1.7s-0.2,1.2-0.7,1.7C15.6,28.6,15.1,28.8,14.4,28.8z
	 M33.6,28.8c-0.7,0-1.2-0.2-1.7-0.7c-0.5-0.5-0.7-1-0.7-1.7s0.2-1.2,0.7-1.7c0.5-0.5,1-0.7,1.7-0.7c0.7,0,1.3,0.2,1.7,0.7
	c0.5,0.5,0.7,1,0.7,1.7s-0.2,1.2-0.7,1.7C34.9,28.6,34.3,28.8,33.6,28.8z M24,38.4c-0.7,0-1.2-0.2-1.7-0.7c-0.5-0.5-0.7-1-0.7-1.7
	s0.2-1.2,0.7-1.7c0.5-0.5,1-0.7,1.7-0.7s1.2,0.2,1.7,0.7c0.5,0.5,0.7,1,0.7,1.7s-0.2,1.2-0.7,1.7C25.2,38.2,24.7,38.4,24,38.4z
	 M14.4,38.4c-0.7,0-1.2-0.2-1.7-0.7c-0.5-0.5-0.7-1-0.7-1.7s0.2-1.2,0.7-1.7c0.5-0.5,1-0.7,1.7-0.7c0.7,0,1.2,0.2,1.7,0.7
	c0.5,0.5,0.7,1,0.7,1.7s-0.2,1.2-0.7,1.7C15.6,38.2,15.1,38.4,14.4,38.4z M33.6,38.4c-0.7,0-1.2-0.2-1.7-0.7c-0.5-0.5-0.7-1-0.7-1.7
	s0.2-1.2,0.7-1.7c0.5-0.5,1-0.7,1.7-0.7c0.7,0,1.3,0.2,1.7,0.7c0.5,0.5,0.7,1,0.7,1.7s-0.2,1.2-0.7,1.7
	C34.9,38.2,34.3,38.4,33.6,38.4z"/>
</svg>
