<?xml version="1.0" encoding="utf-8"?>
<!-- Generator: Adobe Illustrator 24.3.0, SVG Export Plug-In . SVG Version: 6.00 Build 0)  -->
<svg fill="white" version="1.1" id="Layer_1" xmlns="http://www.w3.org/2000/svg" xmlns:xlink="http://www.w3.org/1999/xlink" x="0px" y="0px"
	 viewBox="0 0 48 48" style="enable-background:new 0 0 48 48;" xml:space="preserve">
<path d="M3.1,47.8l-3-3c-0.2-0.2-0.2-0.5,0-0.8l20-20c0.1-0.1,0.1-0.2,0-0.3l-20-20c-0.2-0.2-0.2-0.5,0-0.8l3-3
	c0.2-0.2,0.5-0.2,0.8,0l20,20c0.1,0.1,0.2,0.1,0.3,0l20-20c0.2-0.2,0.5-0.2,0.8,0l3,3c0.2,0.2,0.2,0.5,0,0.8l-20,20
	c-0.1,0.1-0.1,0.2,0,0.3l20,20c0.2,0.2,0.2,0.5,0,0.8l-3,3c-0.2,0.2-0.5,0.2-0.8,0l-20-20c-0.1-0.1-0.2-0.1-0.3,0l-20,20
	C3.7,48.1,3.3,48.1,3.1,47.8z"/>
</svg>
