<?xml version="1.0" encoding="utf-8"?>
<!-- Generator: Adobe Illustrator 24.3.0, SVG Export Plug-In . SVG Version: 6.00 Build 0)  -->
<svg fill="hsl(0, 0%, 70%)" version="1.1" id="Layer_1" xmlns="http://www.w3.org/2000/svg" xmlns:xlink="http://www.w3.org/1999/xlink" x="0px" y="0px"
	 viewBox="0 0 48 48" style="enable-background:new 0 0 48 48;" xml:space="preserve">
<path d="M0,30.2v-3.7c0-0.2,0.1-0.3,0.3-0.3h47.4c0.2,0,0.3,0.1,0.3,0.3v3.9c0,0.2-0.1,0.3-0.3,0.3H0.5C0.2,30.8,0,30.5,0,30.2z"/>
<path d="M0,21.2v-3.7c0-0.2,0.1-0.3,0.3-0.3h47.4c0.2,0,0.3,0.1,0.3,0.3v3.9c0,0.2-0.1,0.3-0.3,0.3H0.5C0.2,21.8,0,21.5,0,21.2z"/>
</svg>
