<?xml version="1.0" encoding="utf-8"?>
<!-- Generator: Adobe Illustrator 27.2.0, SVG Export Plug-In . SVG Version: 6.00 Build 0)  -->
<svg version="1.1" id="Layer_1" xmlns="http://www.w3.org/2000/svg" xmlns:xlink="http://www.w3.org/1999/xlink" x="0px" y="0px"
	 viewBox="0 0 48 48" style="enable-background:new 0 0 48 48;" xml:space="preserve">
<style type="text/css">
	.st0{fill:#FFFFFF;}
</style>
<path class="st0" d="M5.3,42.7h3.7l26.1-26.1l-3.7-3.7L5.3,38.9V42.7z M0,48V36.8L35.2,1.6c0.5-0.5,1.1-0.8,1.9-1.1
	C37.6,0,38.4,0,38.9,0c0.8,0,1.3,0,2.1,0.3c0.5,0.3,1.3,0.5,1.9,1.3l3.5,3.7c0.5,0.5,0.8,1.1,1.1,1.9C47.7,8,48,8.3,48,9.1
	c0,0.8,0,1.3-0.3,2.1c-0.3,0.5-0.5,1.3-1.1,1.9L11.2,48H0z M42.7,9.1l-3.7-3.7L42.7,9.1z M33.3,14.7l-1.9-1.9l3.7,3.7L33.3,14.7z"/>
</svg>
