<?xml version="1.0" encoding="utf-8"?>
<!-- Generator: Adobe Illustrator 24.3.0, SVG Export Plug-In . SVG Version: 6.00 Build 0)  -->
<svg version="1.1" id="Layer_1" xmlns="http://www.w3.org/2000/svg" xmlns:xlink="http://www.w3.org/1999/xlink" x="0px" y="0px"
	 viewBox="0 0 300 300" style="enable-background:new 0 0 300 300;" xml:space="preserve">
<style type="text/css">
	.st0{fill:#FFFFFF;}
	.st1{fill:#141414;}
</style>
<g>
	<path class="st0" d="M242.8,30c-3.7-3.7-8.1-5.6-13-5.6H68.7c-5,0-9.3,1.9-13,5.6c-3.7,3.7-5.6,8.1-5.6,13v210.6
		c0,5,1.9,9.3,5.6,13c3.7,3.7,8.1,5.6,13,5.6h161.1c5,0,9.3-1.9,13-5.6c3.7-3.7,5.6-8.1,5.6-13V43C248.3,38,246.5,33.7,242.8,30z
		 M229.8,253.6H68.7V43h82.4v82.4l30-17.3l30,17.3V43h18.6V253.6z"/>
	<polygon class="st0" points="211.5,223.6 88.5,223.6 117.6,185.5 139.3,212.7 171.8,170.6 	"/>
</g>
<g>
	<path class="st1" d="M272.2,285.3L14.7,27.8c-3.6-3.6-3.6-9.5,0-13.1l0,0c3.6-3.6,9.5-3.6,13.1,0l257.5,257.5
		c3.6,3.6,3.6,9.5,0,13.1l0,0C281.7,288.9,275.8,288.9,272.2,285.3z"/>
</g>
</svg>
