<?xml version="1.0" encoding="utf-8"?>
<!-- Generator: Adobe Illustrator 24.3.0, SVG Export Plug-In . SVG Version: 6.00 Build 0)  -->
<svg version="1.1" id="Layer_1" xmlns="http://www.w3.org/2000/svg" xmlns:xlink="http://www.w3.org/1999/xlink" x="0px" y="0px"
	 viewBox="0 0 48 48" style="enable-background:new 0 0 48 48;" xml:space="preserve">
<path d="M24.2,45.8c-0.1,0.1-0.3,0.1-0.4,0l-2.3-2c-4.2-3.9-7.7-7.2-10.5-10s-5-5.3-6.6-7.6s-2.8-4.2-3.5-6s-1-3.6-1-5.5
	c0-3.6,1.2-6.6,3.6-9S9,2,12.6,2c2.3,0,4.4,0.5,6.3,1.6c1.9,1.1,3.6,2.6,5,4.6c0,0.1,0.1,0.1,0.2,0c1.7-2.1,3.4-3.7,5.3-4.7
	c1.9-1,3.9-1.5,6.1-1.5c3.6,0,6.5,1.2,9,3.6s3.6,5.4,3.6,9c0,1.8-0.3,3.7-1,5.5c-0.7,1.8-1.8,3.8-3.5,6c-1.6,2.2-3.8,4.7-6.6,7.6
	c-2.8,2.8-6.3,6.2-10.5,10L24.2,45.8z M23.9,41.2c0,0,0.1,0,0.1,0c4-3.7,7.3-6.9,9.9-9.5c2.6-2.7,4.7-5,6.2-7c1.5-2,2.6-3.8,3.2-5.3
	s0.9-3.1,0.9-4.7c0-2.6-0.8-4.8-2.5-6.5S38,5.6,35.4,5.6c-2,0-3.9,0.6-5.7,1.9c-1.7,1.2-3.1,2.9-4.2,5.1c0,0.1-0.2,0.2-0.3,0.2
	l-2.6,0c-0.1,0-0.2-0.1-0.3-0.2c-1-2.2-2.4-3.9-4.1-5.1c-1.8-1.3-3.7-1.9-5.7-1.9c-2.6,0-4.8,0.8-6.5,2.6S3.6,12,3.6,14.7
	c0,1.6,0.3,3.1,0.9,4.7s1.7,3.4,3.2,5.4s3.6,4.4,6.3,7C16.7,34.4,20,37.5,23.9,41.2z"/>
</svg>
