<?xml version="1.0" encoding="utf-8"?>
<!-- Generator: Adobe Illustrator 24.3.0, SVG Export Plug-In . SVG Version: 6.00 Build 0)  -->
<svg version="1.1" id="Layer_1" xmlns="http://www.w3.org/2000/svg" xmlns:xlink="http://www.w3.org/1999/xlink" x="0px" y="0px"
	 viewBox="0 0 48 48" style="enable-background:new 0 0 48 48;" xml:space="preserve">
<path d="M3.6,43.2c-1,0-1.8-0.4-2.5-1.1C0.4,41.3,0,40.5,0,39.6V8.4c0-0.9,0.4-1.7,1.1-2.5s1.6-1.1,2.5-1.1h16.7
	c0.1,0,0.2,0,0.2,0.1l3.4,3.4C24,8.4,24,8.4,24.1,8.4h20.3c0.9,0,1.8,0.4,2.5,1.1c0.7,0.7,1.1,1.6,1.1,2.5v27.6
	c0,0.9-0.4,1.8-1.1,2.5c-0.7,0.7-1.6,1.1-2.5,1.1H3.6z M3.6,9.4v29.2c0,0.6,0.4,1,1,1h38.8c0.6,0,1-0.4,1-1V13c0-0.6-0.4-1-1-1H22.6
	c-0.1,0-0.2,0-0.2-0.1L19,8.5c-0.1-0.1-0.1-0.1-0.2-0.1H4.6C4,8.4,3.6,8.8,3.6,9.4z M3.6,8.4v31.2V8.4z"/>
</svg>
