<?xml version="1.0" encoding="utf-8"?>
<!-- Generator: Adobe Illustrator 24.3.0, SVG Export Plug-In . SVG Version: 6.00 Build 0)  -->
<svg version="1.1" id="Layer_1" xmlns="http://www.w3.org/2000/svg" xmlns:xlink="http://www.w3.org/1999/xlink" x="0px" y="0px"
	 viewBox="0 0 48 48" style="enable-background:new 0 0 48 48;" xml:space="preserve">
<path d="M28.1,36h7.2c0.8,0,1.6-0.3,2.1-0.9c0.6-0.6,0.9-1.3,0.9-2.1V20.8c0-0.1,0-0.1,0.1-0.1h2c0.2,0,0.3-0.1,0.3-0.3V18
	c0-0.2-0.1-0.3-0.3-0.3h-6.2c-0.1,0-0.1,0-0.1-0.1v-1.7c0-0.2-0.1-0.3-0.3-0.3h-4.2c-0.2,0-0.3,0.1-0.3,0.3v1.7c0,0.1,0,0.1-0.1,0.1
	H23c-0.2,0-0.3,0.1-0.3,0.3v2.4c0,0.2,0.1,0.3,0.3,0.3h2c0.1,0,0.1,0,0.1,0.1V33c0,0.8,0.3,1.6,0.9,2.1C26.6,35.7,27.3,36,28.1,36z
	 M28.1,32.9V20.8c0-0.1,0-0.1,0.1-0.1h7c0.1,0,0.1,0,0.1,0.1v12.1c0,0.1,0,0.1-0.1,0.1h-7C28.2,33,28.1,33,28.1,32.9z M3.6,43.2
	c-1,0-1.8-0.4-2.5-1.1C0.4,41.3,0,40.5,0,39.6V8.4c0-0.9,0.4-1.7,1.1-2.5s1.6-1.1,2.5-1.1h16.7c0.1,0,0.2,0,0.2,0.1L24,8.4
	c0,0,0,0,0.1,0h20.4c0.9,0,1.8,0.4,2.5,1.1c0.7,0.7,1.1,1.6,1.1,2.5v27.6c0,0.9-0.4,1.8-1.1,2.5c-0.7,0.7-1.6,1.1-2.5,1.1H3.6z
	 M4.6,39.6h38.8c0.6,0,1-0.4,1-1V13c0-0.6-0.4-1-1-1H22.6c-0.1,0-0.2,0-0.2-0.1l-3.5-3.5c0,0,0,0-0.1,0H4.6c-0.6,0-1,0.4-1,1v29.2
	C3.6,39.2,4,39.6,4.6,39.6z M3.6,39.6V8.4V39.6z"/>
</svg>
