<?xml version="1.0" encoding="utf-8"?>
<!-- Generator: Adobe Illustrator 24.3.0, SVG Export Plug-In . SVG Version: 6.00 Build 0)  -->
<svg version="1.1" id="Layer_1" xmlns="http://www.w3.org/2000/svg" xmlns:xlink="http://www.w3.org/1999/xlink" x="0px" y="0px"
	 viewBox="0 0 48 48" style="enable-background:new 0 0 48 48;" xml:space="preserve">
<path d="M7.9,46.2l2.9-11.5c0-0.1,0-0.1-0.1-0.1H0.4c-0.2,0-0.3-0.2-0.3-0.4L1,30.6c0-0.1,0.2-0.2,0.3-0.2h10.5c0,0,0.1,0,0.1-0.1
	L15,17.8c0-0.1,0-0.1-0.1-0.1H3.2c-0.2,0-0.3-0.2-0.3-0.4l0.9-3.6c0-0.1,0.2-0.2,0.3-0.2H16c0,0,0.1,0,0.1-0.1L19,1.6
	c0-0.1,0.2-0.2,0.3-0.2h3.5c0.2,0,0.3,0.2,0.3,0.4l-2.8,11.5c0,0.1,0,0.1,0.1,0.1H33c0,0,0.1,0,0.1-0.1l2.9-11.7
	c0-0.1,0.2-0.2,0.3-0.2h3.5c0.2,0,0.3,0.2,0.3,0.4l-2.8,11.5c0,0.1,0,0.1,0.1,0.1H48l-1,4c0,0.1-0.2,0.2-0.3,0.2H36.2
	c0,0-0.1,0-0.1,0.1L33,30.2c0,0.1,0,0.1,0.1,0.1h11.7c0.2,0,0.3,0.2,0.3,0.4l-0.9,3.6c0,0.1-0.2,0.2-0.3,0.2H32c0,0-0.1,0-0.1,0.1
	L29,46.4c0,0.1-0.2,0.2-0.3,0.2h-3.6c-0.2,0-0.3-0.2-0.3-0.4l2.9-11.5c0-0.1,0-0.1-0.1-0.1H15c0,0-0.1,0-0.1,0.1l-2.9,11.7
	c0,0.1-0.2,0.2-0.3,0.2H8.2C8,46.6,7.8,46.4,7.9,46.2z M16.2,30.4h12.6c0,0,0.1,0,0.1-0.1l3.1-12.5c0-0.1,0-0.1-0.1-0.1H19.3
	c0,0-0.1,0-0.1,0.1l-3.1,12.5C16,30.3,16.1,30.4,16.2,30.4z"/>
</svg>
