<?xml version="1.0" encoding="utf-8"?>
<!-- Generator: Adobe Illustrator 24.3.0, SVG Export Plug-In . SVG Version: 6.00 Build 0)  -->
<svg version="1.1" id="Layer_1" xmlns="http://www.w3.org/2000/svg" xmlns:xlink="http://www.w3.org/1999/xlink" x="0px" y="0px"
	 viewBox="0 0 48 48" style="enable-background:new 0 0 48 48;" xml:space="preserve">
<path d="M22.7,36h3c0.2,0,0.3-0.1,0.3-0.3V21.9c0-0.2-0.1-0.3-0.3-0.3h-3c-0.2,0-0.3,0.1-0.3,0.3v13.8C22.4,35.9,22.5,36,22.7,36z
	 M24,17.2c0.6,0,1-0.2,1.4-0.5c0.4-0.4,0.6-0.8,0.6-1.4c0-0.6-0.2-1-0.6-1.4c-0.4-0.4-0.8-0.6-1.4-0.6s-1,0.2-1.4,0.6
	S22,14.7,22,15.2s0.2,1,0.6,1.4C23,17,23.4,17.2,24,17.2z M24,48c-3.3,0-6.4-0.6-9.3-1.9s-5.5-3-7.6-5.2c-2.2-2.2-3.9-4.7-5.2-7.7
	S0,27.3,0,23.9c0-3.3,0.6-6.4,1.9-9.3s3-5.5,5.2-7.6s4.7-3.9,7.6-5.1s6-1.9,9.4-1.9c3.3,0,6.4,0.6,9.3,1.9s5.5,3,7.6,5.1
	c2.2,2.2,3.9,4.7,5.1,7.6s1.9,6,1.9,9.4c0,3.3-0.6,6.4-1.9,9.3s-3,5.5-5.1,7.7c-2.2,2.2-4.7,3.9-7.6,5.2S27.3,48,24,48z M24.1,44.4
	c5.6,0,10.4-2,14.4-6s5.9-8.8,5.9-14.5c0-5.6-2-10.4-5.9-14.4S29.7,3.6,24,3.6c-5.6,0-10.4,2-14.4,5.9s-6,8.8-6,14.5
	c0,5.6,2,10.4,6,14.4S18.4,44.4,24.1,44.4z"/>
</svg>
