<?xml version="1.0" encoding="utf-8"?>
<!-- Generator: Adobe Illustrator 24.3.0, SVG Export Plug-In . SVG Version: 6.00 Build 0)  -->
<svg version="1.1" id="Layer_1" xmlns="http://www.w3.org/2000/svg" xmlns:xlink="http://www.w3.org/1999/xlink" x="0px" y="0px"
	 viewBox="0 0 48 48" style="enable-background:new 0 0 48 48;" xml:space="preserve">
<path d="M24.4,32.8c1.6,0,3-0.6,4.2-1.7c1.2-1.1,1.7-2.5,1.7-4.2V12.1c0-0.2,0.1-0.3,0.3-0.3H37c0.2,0,0.3-0.1,0.3-0.3v-3
	c0-0.2-0.1-0.3-0.3-0.3h-8.8c-0.2,0-0.3,0.1-0.3,0.3v13.9c-0.4-0.4-1-0.6-1.6-0.8c-0.6-0.2-1.3-0.3-2-0.3c-1.6,0-2.9,0.6-4,1.7
	c-1.1,1.1-1.6,2.4-1.6,4c0,1.6,0.5,3,1.6,4.1S22.8,32.8,24.4,32.8z M10.8,40.8c-1,0-1.8-0.4-2.5-1.1c-0.7-0.7-1.1-1.6-1.1-2.5V3.6
	c0-1,0.4-1.8,1.1-2.5C9,0.4,9.8,0,10.8,0h33.6c1,0,1.8,0.4,2.5,1.1C47.6,1.8,48,2.6,48,3.6v33.6c0,1-0.4,1.8-1.1,2.5
	c-0.7,0.7-1.6,1.1-2.5,1.1H10.8z M11.8,37.2h31.6c0.6,0,1-0.4,1-1V4.6c0-0.6-0.4-1-1-1H11.8c-0.6,0-1,0.4-1,1v31.6
	C10.8,36.8,11.2,37.2,11.8,37.2z M3.6,48c-1,0-1.8-0.4-2.5-1.1C0.4,46.2,0,45.4,0,44.4V7.5c0-0.2,0.1-0.3,0.3-0.3h3
	c0.2,0,0.3,0.1,0.3,0.3v35.9c0,0.6,0.4,1,1,1h35.9c0.2,0,0.3,0.1,0.3,0.3v3c0,0.2-0.1,0.3-0.3,0.3H3.6z M10.8,3.6v33.6V3.6z"/>
</svg>
