<?xml version="1.0" encoding="utf-8"?>
<!-- Generator: Adobe Illustrator 24.3.0, SVG Export Plug-In . SVG Version: 6.00 Build 0)  -->
<svg fill="hsl(0, 0%, 70%)" version="1.1" id="Layer_1" xmlns="http://www.w3.org/2000/svg" xmlns:xlink="http://www.w3.org/1999/xlink" x="0px" y="0px"
	 viewBox="0 0 48 48" style="enable-background:new 0 0 48 48;" xml:space="preserve">
<path d="M3.6,27.6c-1,0-1.8-0.4-2.5-1.1C0.4,25.8,0,25,0,24c0-1,0.4-1.8,1-2.5c0.7-0.7,1.5-1.1,2.5-1.1c1,0,1.8,0.4,2.5,1.1
	c0.7,0.7,1,1.6,1,2.5c0,1-0.4,1.8-1,2.6C5.4,27.2,4.6,27.6,3.6,27.6z M24,27.6c-1,0-1.8-0.4-2.6-1.1c-0.7-0.7-1.1-1.6-1.1-2.6
	c0-1,0.4-1.9,1.1-2.6c0.7-0.7,1.6-1.1,2.6-1.1s1.8,0.4,2.6,1.1c0.7,0.7,1.1,1.5,1.1,2.6c0,1-0.4,1.9-1.1,2.6
	C25.8,27.2,25,27.6,24,27.6z M44.4,27.6c-1,0-1.9-0.4-2.5-1.1c-0.7-0.7-1.1-1.6-1.1-2.6c0-1,0.3-1.9,1.1-2.6
	c0.7-0.7,1.5-1.1,2.5-1.1s1.9,0.4,2.5,1.1C47.7,22.1,48,23,48,24c0,1-0.3,1.8-1.1,2.6C46.2,27.2,45.4,27.6,44.4,27.6z"/>
</svg>
