<?xml version="1.0" encoding="utf-8"?>
<!-- Generator: Adobe Illustrator 24.3.0, SVG Export Plug-In . SVG Version: 6.00 Build 0)  -->
<svg version="1.1" id="Layer_1" xmlns="http://www.w3.org/2000/svg" xmlns:xlink="http://www.w3.org/1999/xlink" x="0px" y="0px"
	 viewBox="0 0 48 48" style="enable-background:new 0 0 48 48;" xml:space="preserve">
<path d="M24,48c-1,0-1.8-0.3-2.6-1.1c-0.7-0.7-1.1-1.5-1.1-2.5s0.4-1.9,1.1-2.5c0.7-0.7,1.6-1.1,2.6-1.1s1.8,0.3,2.6,1.1
	c0.7,0.7,1.1,1.5,1.1,2.5s-0.4,1.9-1.1,2.5C25.8,47.7,25,48,24,48z M24,27.6c-1,0-1.8-0.3-2.6-1c-0.7-0.7-1.1-1.6-1.1-2.6
	s0.4-1.8,1.1-2.5c0.7-0.7,1.6-1.1,2.6-1.1s1.8,0.4,2.6,1.1c0.7,0.7,1.1,1.5,1.1,2.5s-0.4,1.9-1.1,2.6C25.8,27.2,25,27.6,24,27.6z
	 M24,7.2c-1,0-1.8-0.4-2.6-1c-0.7-0.7-1.1-1.6-1.1-2.5c0-1,0.4-1.8,1.1-2.5C22.2,0.4,23,0,24,0s1.8,0.4,2.6,1
	c0.7,0.7,1.1,1.5,1.1,2.5c0,1-0.4,1.8-1.1,2.5C25.8,6.8,25,7.2,24,7.2z"/>
</svg>
