<?xml version="1.0" encoding="utf-8"?>
<!-- Generator: Adobe Illustrator 24.3.0, SVG Export Plug-In . SVG Version: 6.00 Build 0)  -->
<svg version="1.1" id="Layer_1" xmlns="http://www.w3.org/2000/svg" xmlns:xlink="http://www.w3.org/1999/xlink" x="0px" y="0px"
	 viewBox="0 0 48 48" style="enable-background:new 0 0 48 48;" xml:space="preserve">
<path d="M24,23.2c-3.3,0-6-1.1-8.1-3.2c-2.1-2.1-3.2-4.8-3.2-8.1s1-6,3.2-8.1C18,1.8,20.7,0.7,24,0.7s6,1,8.1,3.2
	c2.1,2.1,3.2,4.8,3.2,8.1s-1,6-3.2,8.1C30,22.2,27.3,23.2,24,23.2z M0.3,47.3C0.1,47.3,0,47.2,0,47v-6.8c0-1.9,0.5-3.5,1.4-4.9
	C2.4,34,3.6,33,5.1,32.3c3.4-1.5,6.6-2.6,9.6-3.4s6.2-1.1,9.3-1.1s6.2,0.4,9.2,1.2c3.1,0.8,6.2,1.9,9.6,3.3c1.6,0.7,2.8,1.7,3.8,3.1
	c1,1.3,1.4,3,1.4,4.9V47c0,0.2-0.1,0.3-0.3,0.3H0.3z M4.8,42.8h38.4c0.2,0,0.3-0.1,0.3-0.3v-2.2c0-0.8-0.2-1.6-0.7-2.3
	c-0.5-0.7-1.1-1.3-1.8-1.6c-3.2-1.5-6.1-2.6-8.8-3.2c-2.7-0.6-5.4-0.9-8.3-0.9s-5.6,0.3-8.3,0.9c-2.7,0.6-5.6,1.6-8.8,3.2
	c-0.7,0.3-1.3,0.9-1.7,1.6c-0.5,0.7-0.7,1.5-0.7,2.3v2.2C4.5,42.7,4.6,42.8,4.8,42.8z M24,18.7c2,0,3.6-0.6,4.8-1.9
	c1.3-1.3,1.9-2.9,1.9-4.8s-0.6-3.6-1.9-4.8C27.6,5.8,26,5.2,24,5.2s-3.6,0.6-4.8,1.9c-1.3,1.3-1.9,2.9-1.9,4.8s0.6,3.6,1.9,4.8
	C20.4,18.1,22,18.7,24,18.7z"/>
</svg>
