<?xml version="1.0" encoding="utf-8"?>
<!-- Generator: Adobe Illustrator 24.3.0, SVG Export Plug-In . SVG Version: 6.00 Build 0)  -->
<svg version="1.1" id="Layer_1" xmlns="http://www.w3.org/2000/svg" xmlns:xlink="http://www.w3.org/1999/xlink" x="0px" y="0px"
	 viewBox="0 0 48 48" style="enable-background:new 0 0 48 48;" xml:space="preserve">
<path d="M0,30.6v-3.2c0-0.2,0.1-0.3,0.3-0.3h18.3c0.2,0,0.3,0.1,0.3,0.3v3.2c0,0.2-0.1,0.3-0.3,0.3H0.3C0.1,30.9,0,30.8,0,30.6z
	 M0,20.2V17c0-0.2,0.1-0.3,0.3-0.3h29.1c0.2,0,0.3,0.1,0.3,0.3v3.2c0,0.2-0.1,0.3-0.3,0.3H0.3C0.1,20.5,0,20.4,0,20.2z M0,9.8V6.6
	c0-0.2,0.1-0.3,0.3-0.3h29.1c0.2,0,0.3,0.1,0.3,0.3v3.2c0,0.2-0.1,0.3-0.3,0.3H0.3C0.1,10.1,0,10,0,9.8z M33.5,41.4V31
	c0-0.1,0-0.1-0.1-0.1H23c-0.2,0-0.3-0.1-0.3-0.3v-3.2c0-0.2,0.1-0.3,0.3-0.3h10.3c0.1,0,0.1,0,0.1-0.1V16.7c0-0.2,0.1-0.3,0.3-0.3
	H37c0.2,0,0.3,0.1,0.3,0.3v10.3c0,0.1,0,0.1,0.1,0.1h10.3c0.2,0,0.3,0.1,0.3,0.3v3.2c0,0.2-0.1,0.3-0.3,0.3H37.4
	c-0.1,0-0.1,0-0.1,0.1v10.3c0,0.2-0.1,0.3-0.3,0.3h-3.2C33.6,41.7,33.5,41.5,33.5,41.4z"/>
</svg>
