<?xml version="1.0" encoding="utf-8"?>
<!-- Generator: Adobe Illustrator 24.3.0, SVG Export Plug-In . SVG Version: 6.00 Build 0)  -->
<svg version="1.1" id="Layer_1" xmlns="http://www.w3.org/2000/svg" xmlns:xlink="http://www.w3.org/1999/xlink" x="0px" y="0px"
	 viewBox="0 0 48 48" style="enable-background:new 0 0 48 48;" xml:space="preserve">
<path d="M32.8,41.7c-2.1,0-3.8-0.7-5.3-2.1s-2.2-3.1-2.2-5.1c0-2,0.7-3.7,2.1-5.1c1.4-1.4,3.1-2.1,5.1-2.1c0.7,0,1.3,0.1,2,0.2
	c0.6,0.1,1.2,0.3,1.8,0.6c0.1,0,0.1,0,0.1-0.1V6.6c0-0.2,0.1-0.3,0.3-0.3h10.9c0.2,0,0.3,0.1,0.3,0.3v3.9c0,0.2-0.1,0.3-0.3,0.3
	h-7.3c-0.1,0-0.1,0-0.1,0.1v23.6c0,2-0.7,3.7-2.2,5.1C36.7,41,34.9,41.7,32.8,41.7z"/>
<path d="M0,30.6v-3.2c0-0.2,0.1-0.3,0.3-0.3H19c0.2,0,0.3,0.1,0.3,0.3v3.2c0,0.2-0.1,0.3-0.3,0.3H0.3C0.1,30.9,0,30.8,0,30.6z"/>
<path d="M0,20.2V17c0-0.2,0.1-0.3,0.3-0.3h29.3c0.2,0,0.3,0.1,0.3,0.3v3.2c0,0.2-0.1,0.3-0.3,0.3H0.3C0.1,20.5,0,20.4,0,20.2z"/>
<path d="M0,9.8V6.6c0-0.2,0.1-0.3,0.3-0.3h29.3c0.2,0,0.3,0.1,0.3,0.3v3.2c0,0.2-0.1,0.3-0.3,0.3H0.3C0.1,10.1,0,10,0,9.8z"/>
</svg>
