<?xml version="1.0" encoding="utf-8"?>
<!-- Generator: Adobe Illustrator 24.3.0, SVG Export Plug-In . SVG Version: 6.00 Build 0)  -->
<svg version="1.1" id="Layer_1" xmlns="http://www.w3.org/2000/svg" xmlns:xlink="http://www.w3.org/1999/xlink" x="0px" y="0px"
	 viewBox="0 0 48 48" style="enable-background:new 0 0 48 48;" xml:space="preserve">
<path d="M44.9,47.7L27.6,30.5c0,0-0.1,0-0.1,0c-1.3,1.1-2.9,2-4.6,2.6c-1.8,0.6-3.7,1-5.7,1c-4.8,0-8.9-1.7-12.3-5.1
	C1.8,25.8,0,21.5,0,17c0-4.7,1.7-8.7,5-12.1c3.3-3.3,7.4-5,12.1-5c4.7,0,8.7,1.7,12,5s5,7.4,5,12.1c0,1.9-0.3,3.8-0.9,5.5
	c-0.6,1.8-1.5,3.4-2.7,4.9c0,0,0,0.1,0,0.1l17.3,17.2c0.1,0.1,0.1,0.3,0,0.4l-2.5,2.5C45.2,47.9,45,47.9,44.9,47.7z M17.1,30.1
	c3.6,0,6.7-1.3,9.2-3.8c2.5-2.6,3.8-5.6,3.8-9.2s-1.3-6.7-3.8-9.2s-5.6-3.8-9.2-3.8c-3.6,0-6.7,1.3-9.3,3.8S4,13.4,4,17
	s1.3,6.7,3.8,9.2S13.5,30.1,17.1,30.1z"/>
</svg>
