<?xml version="1.0" encoding="utf-8"?>
<!-- Generator: Adobe Illustrator 27.2.0, SVG Export Plug-In . SVG Version: 6.00 Build 0)  -->
<svg version="1.1" id="Layer_1" xmlns="http://www.w3.org/2000/svg" xmlns:xlink="http://www.w3.org/1999/xlink" x="0px" y="0px"
	 viewBox="0 0 24 24" style="enable-background:new 0 0 24 24;" xml:space="preserve">
<path d="M0,23.7v-2.4C0,21.1,0.1,21,0.3,21h3.8l-0.6-0.5c-1.3-1.1-2.2-2.5-2.7-3.9S0,13.6,0,12.1c0-2.8,0.8-5.2,2.5-7.4
	c1.6-2.1,3.6-3.4,6.1-4.2C8.8,0.4,9,0.6,9,0.8v2.5c0,0.1-0.1,0.2-0.2,0.3C7.1,4.3,5.7,5.3,4.7,6.8C3.6,8.4,3,10.2,3,12.1
	c0,1.1,0.2,2.2,0.6,3.3c0.4,1.1,1.1,2,2,2.9L6,18.7v-3.4C6,15.1,6.1,15,6.3,15h2.4C8.9,15,9,15.1,9,15.3v8.4C9,23.9,8.9,24,8.7,24
	H0.3C0.1,24,0,23.9,0,23.7z M15,23.2v-2.5c0-0.1,0.1-0.2,0.2-0.3c1.7-0.7,3.1-1.7,4.2-3.2c1.1-1.6,1.6-3.3,1.6-5.2
	c0-1.1-0.2-2.2-0.6-3.3s-1.1-2-2-2.9L18,5.3v3.4C18,8.9,17.9,9,17.7,9h-2.4C15.1,9,15,8.9,15,8.7V0.3C15,0.1,15.1,0,15.3,0h8.4
	C23.9,0,24,0.1,24,0.3v2.4C24,2.9,23.9,3,23.7,3h-3.8l0.6,0.5c1.2,1.2,2.1,2.6,2.7,4s0.8,2.9,0.8,4.4c0,2.8-0.8,5.2-2.5,7.4
	c-1.6,2.1-3.6,3.4-6.1,4.2C15.2,23.6,15,23.4,15,23.2z"/>
</svg>
