<?xml version="1.0" encoding="utf-8"?>
<!-- Generator: Adobe Illustrator 24.3.0, SVG Export Plug-In . SVG Version: 6.00 Build 0)  -->
<svg version="1.1" id="Layer_1" xmlns="http://www.w3.org/2000/svg" xmlns:xlink="http://www.w3.org/1999/xlink" x="0px" y="0px"
	 viewBox="0 0 48 48" style="enable-background:new 0 0 48 48;" xml:space="preserve">
<path d="M26.1,47.9c-0.5,0-0.9-0.1-1.4-0.2c-0.4-0.1-0.9-0.4-1.3-0.8L1,24.5c-0.4-0.4-0.7-0.8-0.8-1.3C0.1,22.8,0,22.3,0,21.8V3.7
	c0-1,0.3-1.9,1-2.6s1.5-1,2.6-1h18.2c0.5,0,1,0.1,1.4,0.2s0.9,0.4,1.3,0.8l22.3,22.3c0.8,0.8,1.2,1.7,1.2,2.7c0,1-0.4,1.9-1.2,2.7
	L28.6,46.9c-0.3,0.3-0.7,0.6-1.2,0.7C27,47.8,26.5,47.9,26.1,47.9z M26.9,43.7L43.6,27c0.4-0.4,0.4-1,0-1.4L22.1,4
	c-0.2-0.2-0.4-0.3-0.7-0.3H4.6c-0.6,0-1,0.4-1,1v16.8c0,0.3,0.1,0.5,0.3,0.7l21.6,21.6C25.9,44.1,26.5,44.1,26.9,43.7z M9.9,13
	c0.8,0,1.6-0.3,2.2-0.9S13,10.7,13,9.9S12.7,8.3,12,7.7c-0.6-0.6-1.3-0.9-2.2-0.9S8.3,7.1,7.7,7.7S6.8,9.1,6.8,9.9
	c0,0.8,0.3,1.6,0.9,2.2C8.3,12.7,9,13,9.9,13z"/>
</svg>
