<?xml version="1.0" encoding="utf-8"?>
<!-- Generator: Adobe Illustrator 24.3.0, SVG Export Plug-In . SVG Version: 6.00 Build 0)  -->
<svg version="1.1" id="Layer_1" xmlns="http://www.w3.org/2000/svg" xmlns:xlink="http://www.w3.org/1999/xlink" x="0px" y="0px"
	 viewBox="0 0 48 48" style="enable-background:new 0 0 48 48;" xml:space="preserve">
<path d="M17.1,3.1V0.3c0-0.2,0.1-0.3,0.3-0.3h13.1c0.2,0,0.3,0.1,0.3,0.3v2.8c0,0.2-0.1,0.3-0.3,0.3H17.4
	C17.3,3.4,17.1,3.3,17.1,3.1z M22.6,29h2.8c0.2,0,0.3-0.1,0.3-0.3V16.1c0-0.2-0.1-0.3-0.3-0.3h-2.8c-0.2,0-0.3,0.1-0.3,0.3v12.6
	C22.3,28.9,22.4,29,22.6,29z M24,48c-2.8,0-5.5-0.5-8-1.6s-4.7-2.6-6.6-4.4c-1.9-1.9-3.3-4.1-4.4-6.6s-1.6-5.2-1.6-8
	c0-2.8,0.5-5.5,1.6-8s2.6-4.7,4.4-6.6s4.1-3.3,6.6-4.4s5.2-1.6,8-1.6c2.6,0,5,0.4,7.2,1.3c2.2,0.8,4.2,2,5.9,3.5c0,0,0.1,0,0.1,0
	L39.9,9c0.1-0.1,0.3-0.1,0.4,0l2,2c0.1,0.1,0.1,0.3,0,0.4L39.7,14c0,0,0,0.1,0,0.1c1.3,1.5,2.5,3.3,3.5,5.5c1,2.2,1.5,4.8,1.5,7.8
	c0,2.8-0.5,5.5-1.6,8c-1.1,2.5-2.6,4.7-4.4,6.6c-1.9,1.9-4.1,3.3-6.6,4.4S26.8,48,24,48z M24,44.6c4.8,0,8.8-1.7,12.2-5
	c3.3-3.3,5-7.4,5-12.2s-1.7-8.8-5-12.2s-7.4-5-12.2-5c-4.8,0-8.8,1.7-12.2,5s-5,7.4-5,12.2s1.7,8.8,5,12.2
	C15.2,42.9,19.2,44.6,24,44.6z"/>
</svg>
