<?xml version="1.0" encoding="utf-8"?>
<!-- Generator: Adobe Illustrator 24.3.0, SVG Export Plug-In . SVG Version: 6.00 Build 0)  -->
<svg version="1.1" id="Layer_1" xmlns="http://www.w3.org/2000/svg" xmlns:xlink="http://www.w3.org/1999/xlink" x="0px" y="0px"
	 viewBox="0 0 48 48" style="enable-background:new 0 0 48 48;" xml:space="preserve">
<path d="M32.1,46.5c-0.7,0.2-1.4,0.1-1.9-0.3c-0.6-0.4-0.9-1-0.9-1.8c0-0.4,0.1-0.7,0.3-1c0.2-0.3,0.5-0.5,0.8-0.6
	c4-1.4,7.3-3.8,9.8-7.3C42.8,32.1,44,28.3,44,24s-1.2-8.2-3.7-11.6c-2.5-3.4-5.8-5.9-9.8-7.2c-0.4-0.1-0.6-0.3-0.8-0.6
	c-0.2-0.3-0.3-0.6-0.3-1c0-0.8,0.3-1.3,0.9-1.8c0.6-0.4,1.2-0.5,1.9-0.3c4.8,1.7,8.6,4.6,11.5,8.7C46.5,14.2,48,18.8,48,24
	s-1.5,9.7-4.4,13.8C40.7,41.9,36.9,44.8,32.1,46.5z M2,32c-0.6,0-1.1-0.2-1.4-0.6C0.2,31.1,0,30.6,0,30V18c0-0.6,0.2-1.1,0.6-1.4
	C0.9,16.2,1.4,16,2,16h8.7l9.9-9.9c0.6-0.6,1.3-0.8,2.2-0.4C23.6,6,24,6.6,24,7.5v33.1c0,0.9-0.4,1.5-1.2,1.8
	c-0.8,0.3-1.5,0.2-2.2-0.4L10.7,32H2z M28,35.2V12.8c2.4,0.8,4.3,2.2,5.8,4.3s2.2,4.4,2.2,7c0,2.6-0.7,5-2.2,7S30.4,34.5,28,35.2z
	 M20,12.8L12.5,20H4v8h8.5l7.5,7.3V12.8z"/>
</svg>
