<?xml version="1.0" encoding="utf-8"?>
<!-- Generator: Adobe Illustrator 24.3.0, SVG Export Plug-In . SVG Version: 6.00 Build 0)  -->
<svg fill="white" version="1.1" id="Layer_1" xmlns="http://www.w3.org/2000/svg" xmlns:xlink="http://www.w3.org/1999/xlink" x="0px" y="0px"
	 viewBox="0 0 48 48" style="enable-background:new 0 0 48 48;" xml:space="preserve">
<path d="M47.8,3L26.8,23.9c0,0,0,0.1,0,0.1L47.8,45c0.1,0.1,0.1,0.3,0,0.4l-2.3,2.4c-0.1,0.1-0.3,0.1-0.4,0L24,26.9
	c0,0-0.1,0-0.1,0L2.9,47.8c-0.1,0.1-0.3,0.1-0.4,0l-2.3-2.4c-0.1-0.1-0.1-0.3,0-0.4l20.9-20.9c0,0,0-0.1,0-0.1L0.2,3
	c-0.1-0.1-0.1-0.3,0-0.4l2.3-2.4c0.1-0.1,0.3-0.1,0.4,0l20.9,20.9c0,0,0.1,0,0.1,0l21-20.9c0.1-0.1,0.3-0.1,0.4,0l2.3,2.4
	C47.9,2.7,47.9,2.9,47.8,3z"/>
</svg>
