<?xml version="1.0" encoding="utf-8"?>
<!-- Generator: Adobe Illustrator 24.3.0, SVG Export Plug-In . SVG Version: 6.00 Build 0)  -->
<svg fill="white" version="1.1" id="Layer_1" xmlns="http://www.w3.org/2000/svg" xmlns:xlink="http://www.w3.org/1999/xlink" x="0px" y="0px"
	 viewBox="0 0 48 48" style="enable-background:new 0 0 48 48;" xml:space="preserve">
<g>
	<path class="st0" d="M47.7,48H0.3C0.1,48,0,47.9,0,47.7V0.3C0,0.1,0.1,0,0.3,0h47.4C47.9,0,48,0.1,48,0.3v47.4
		C48,47.9,47.9,48,47.7,48z M4.8,43.2h38.2c0.1,0,0.1,0,0.1-0.1V4.8c0-0.1,0-0.1-0.1-0.1H4.8c-0.1,0-0.1,0-0.1,0.1L4.8,43.2
		C4.7,43.1,4.8,43.2,4.8,43.2z"/>
</g>
</svg>
